{"accessors" : [{"bufferView" : 0, "byteOffset" : 0, "componentType" : 5125, "count" : 86388, "type" : "SCALAR", "max" : [84591], "min" : [0]}, {"bufferView" : 1, "byteOffset" : 0, "componentType" : 5126, "count" : 84592, "type" : "VEC3", "max" : [258.5428466796875, 280.12823486328125, 218.03817749023438], "min" : [-258.5428466796875, -9.999999747378752E-06, -218.03817749023438], "name" : "POSITION"}, {"bufferView" : 1, "byteOffset" : 12, "componentType" : 5126, "count" : 84592, "type" : "VEC2", "max" : [1.6100000143051147, 0.563139021396637], "min" : [-0.6100000143051147, -1.562940001487732], "name" : "TEXCOORD_0"}, {"bufferView" : 1, "byteOffset" : 20, "componentType" : 5126, "count" : 84592, "type" : "VEC3", "max" : [1.0000044107437134, 1.0000044107437134, 1.0000044107437134], "min" : [-1.0000044107437134, -1.0000044107437134, -1.0000044107437134], "name" : "NORMAL"}], "asset" : {"generator" : "Aspose.3D 21.11", "version" : "2.0"}, "buffers" : [{"uri" : "data:application/octet-stream;base64,", "byteLength" : 3109976}], "bufferViews" : [{"buffer" : 0, "byteOffset" : 0, "byteLength" : 345552, "target" : 34963}, {"buffer" : 0, "byteOffset" : 345556, "byteLength" : 2764416, "byteStride" : 32, "target" : 34962}], "materials" : [{"name" : "", "pbrMetallicRoughness" : {"baseColorFactor" : [0.568627, 0.568627, 0.568627, 1], "metallicFactor" : 0, "roughnessFactor" : 0}, "emissiveFactor" : [0, 0, 0], "alphaMode" : "OPAQUE", "doubleSided" : false}], "meshes" : [{"primitives" : [{"attributes" : {"POSITION" : 1, "TEXCOORD_0" : 2, "NORMAL" : 3}, "indices" : 0, "material" : 0, "mode" : 4}], "name" : ""}], "nodes" : [{"mesh" : 0, "name" : "Apartment_House"}], "scene" : 0, "scenes" : [{"nodes" : [0]}]}